<?xml version="1.0" standalone="no"?>
<!DOCTYPE svg PUBLIC "-//W3C//DTD SVG 20010904//EN"
 "http://www.w3.org/TR/2001/REC-SVG-20010904/DTD/svg10.dtd">
<svg version="1.0" xmlns="http://www.w3.org/2000/svg"
 width="500.000000pt" height="500.000000pt" viewBox="0 0 500.000000 500.000000"
 preserveAspectRatio="xMidYMid meet">

<g transform="translate(0.000000,500.000000) scale(0.100000,-0.100000)"
fill="#000000" stroke="none">
<path d="M569 3392 c24 -81 82 -155 150 -189 33 -16 84 -18 596 -23 605 -6
581 -4 677 -63 59 -35 110 -94 145 -166 35 -72 43 -194 18 -272 -38 -118 -119
-205 -232 -251 l-58 -23 -652 -3 -651 -3 15 -47 c17 -50 48 -97 91 -137 56
-53 82 -55 642 -55 572 0 586 -1 683 -63 67 -43 102 -85 141 -167 26 -56 31
-79 34 -166 l4 -102 115 -41 c64 -22 120 -38 126 -34 15 9 2 267 -17 338 -29
108 -83 204 -161 283 l-72 73 68 68 c120 123 181 266 182 431 1 264 -144 485
-389 593 -34 15 -85 32 -114 37 -32 6 -312 10 -701 10 l-648 0 8 -28z"/>
<path d="M3084 3410 c-169 -34 -351 -175 -430 -335 -70 -142 -67 -110 -71
-837 -2 -362 0 -658 4 -658 4 0 60 18 123 40 l115 40 3 250 2 250 688 0 c779
0 758 -2 828 72 50 53 69 83 82 131 l10 37 -804 0 -805 0 3 248 c3 232 4 250
26 296 32 69 86 133 148 172 98 63 112 64 687 64 369 0 531 3 559 12 74 22
153 111 179 200 l8 28 -657 -1 c-361 -1 -675 -5 -698 -9z"/>
</g>
</svg>
